<?xml version="1.0" encoding="UTF-8"?>
<svg width="900px" height="900px" viewBox="0 0 900 900" version="1.1" xmlns="http://www.w3.org/2000/svg" xmlns:xlink="http://www.w3.org/1999/xlink">
    <!-- Generator: Sketch 49 (51002) - http://www.bohemiancoding.com/sketch -->
    <title>safari-pinned-tab</title>
    <desc>Created with Sketch.</desc>
    <defs></defs>
    <g id="safari-pinned-tab" stroke="none" stroke-width="1" fill="none" fill-rule="evenodd">
        <g id="Live-Nation-Favicon-Copy-6" fill="#000000">
            <path d="M0,900 L0,0 L900,0 L900,900 L0,900 Z M640.308852,135.034099 C640.308852,135.034099 630.462469,117.208378 628.463435,113.553481 C626.555594,109.965779 623.282265,112.761547 623.282265,112.761547 C623.282265,112.761547 613.143106,120.568099 607.714757,124.256593 C602.300806,128.03868 602.696773,132.291127 602.696773,134.681328 C602.696773,137.030734 600.959317,151.014373 600.959317,151.014373 C600.700139,154.237306 599.020278,156.802693 597.801179,158.391361 L509.150135,228.875913 L498.130249,231.518094 L470.770119,245.110566 L472.363587,225.962555 C474.276228,227.10726 477.379171,230.020618 479.543791,230.351791 C482.164374,230.762157 486.174441,229.617452 486.174441,229.617452 C486.174441,229.617452 484.672166,225.962555 484.672166,223.788335 C484.672166,221.635714 485.180923,218.316789 485.180923,218.316789 C485.180923,218.316789 489.392574,220.937372 492.409124,220.994967 C494.914516,221.167753 497.477503,220.083043 499.022975,218.957536 C500.52525,217.690441 501.981929,216.02258 501.981929,216.02258 C501.981929,216.02258 496.858355,212.778049 495.144897,210.990197 C493.925798,209.617511 492.125947,207.57768 493.357045,207.57768 C495.922432,207.632876 499.704518,203.922784 499.704518,203.922784 C499.704518,203.922784 496.966346,202.257322 494.914516,200.46947 C492.57951,198.487234 491.61479,196.876968 490.626072,194.155594 C489.67575,191.655001 489.222188,189.461583 489.222188,189.461583 C489.222188,189.461583 490.791658,191.597406 494.405758,191.535011 C497.477503,191.422221 500.186878,189.461583 500.186878,189.461583 C500.186878,189.461583 497.787077,188.081698 496.260804,186.389838 C494.518549,184.489196 493.29945,182.449365 492.469119,179.86478 C491.360411,176.159487 490.846853,174.371635 489.901332,171.479875 C489.507764,170.159985 489.222188,167.985765 488.171075,164.376465 C486.999972,156.157147 483.558658,152.73983 483.558658,152.73983 C473.102726,138.446616 449.277502,134.623733 449.277502,134.623733 C437.086514,132.000751 424.96272,148.271401 420.059926,164.604446 C411.9462,191.597406 414.336401,218.235196 414.336401,218.235196 C414.336401,218.235196 414.734768,223.269978 419.064009,226.082545 C421.619797,227.748007 431.869347,230.135809 431.869347,230.135809 L430.765438,252.17558 L405.481136,254.450591 C405.481136,254.450591 386.462714,242.797158 370.710421,233.092363 L300.321861,179.576803 C300.321861,179.576803 297.362907,177.652163 296.988538,171.983833 C296.988538,171.983833 295.253482,158.04099 295.253482,155.63159 C295.253482,153.303783 295.649449,149.034538 290.177903,145.211655 C284.742354,141.439168 274.66799,133.769404 274.66799,133.769404 C274.66799,133.769404 271.394661,130.918441 269.424425,134.506143 C267.490185,138.04105 257.586207,156.037157 257.586207,156.037157 L262.760178,176.507458 C262.760178,176.507458 264.982393,180.546323 268.085336,184.31401 L272.558565,189.012821 L298.694796,212.994031 L299.213153,213.164417 L341.951207,252.350765 L354.197391,264.568152 C354.197391,264.568152 355.078118,266.120823 355.078118,268.530223 C355.078118,270.918025 354.847737,278.451 354.847737,278.451 C354.847737,278.451 354.682151,280.74041 356.074035,282.038702 C357.528315,283.478583 380.448813,302.664991 380.448813,302.664991 C380.448813,302.664991 382.073478,304.023278 382.073478,307.421396 L386.172338,448.760069 C386.172338,448.760069 386.172338,450.953487 388.392154,450.953487 L395.740344,453.787652 L412.510153,608.200441 L444.665085,710.256773 L393.460533,735.689863 C393.460533,735.689863 391.631885,736.625785 390.700762,738.953592 C390.700762,738.953592 387.681813,744.859502 387.681813,746.0858 C387.681813,748.080035 389.251283,748.547996 389.251283,748.547996 L465.639345,748.665586 L458.358349,769.071093 L456.448107,774.506642 C456.448107,774.506642 453.743532,784.90258 458.132768,786.491248 C462.512404,787.943127 476.092877,788.528679 481.984389,788.175908 C489.507764,787.772742 503.090637,786.724029 505.257658,784.487414 C507.28069,782.392388 508.214212,772.975569 497.307117,710.311968 L490.791658,469.167976 L510.323637,318.026116 C512.121088,301.304304 514.333705,299.403661 514.333705,299.403661 C514.333705,299.403661 535.043986,283.536178 537.038221,281.630736 C539.078052,279.710895 538.708482,276.660748 538.708482,276.660748 L538.708482,259.76855 C538.708482,256.468824 539.94198,254.275406 539.94198,254.275406 L556.798181,237.558393 L561.866561,232.295629 L615.883679,179.089644 L625.334095,168.021762 L629.862519,163.361349 C633.023057,159.593661 635.070087,155.63159 635.070087,155.63159 C635.070087,155.63159 638.916968,145.650818 640.308852,142.235902 C641.705537,138.796987 640.308852,135.034099 640.308852,135.034099 Z" id="Combined-Shape"></path>
        </g>
    </g>
</svg>